<svg xmlns="http://www.w3.org/2000/svg" id="Layer_1" data-name="Layer 1" width="24.0345" height="18.8808" viewBox="0 0 24.0345 18.8808"><path d="M21.0473,3.06H3.9526a3.4738,3.4738,0,0,0-3.47,3.47v11.941a3.4738,3.4738,0,0,0,3.47,3.47H21.0473a3.4738,3.4738,0,0,0,3.47-3.47V6.53A3.4738,3.4738,0,0,0,21.0473,3.06Zm0,1.6587a1.8139,1.8139,0,0,1,.4123.049l-7.212,8.1833a2.3291,2.3291,0,0,1-3.4948,0L3.5407,4.7673a1.81,1.81,0,0,1,.4119-.049Zm1.8113,13.7522a1.8132,1.8132,0,0,1-1.8113,1.8112H3.9526a1.8133,1.8133,0,0,1-1.8112-1.8112V6.53a1.8,1.8,0,0,1,.136-.6865l7.2311,8.2045a3.9882,3.9882,0,0,0,5.9834,0l7.2308-8.2042a1.7994,1.7994,0,0,1,.1359.6862Z" transform="translate(-0.4828 -3.0596)"></path></svg>