<svg xmlns="http://www.w3.org/2000/svg" id="Layer_1" data-name="Layer 1" width="24.1363" height="24.1363" viewBox="0 0 24.1363 24.1363"><path d="M18.89,4.7415a1.415,1.415,0,1,0,1.415,1.4149A1.4149,1.4149,0,0,0,18.89,4.7415Z" transform="translate(-0.4319 -0.4319)"></path><path d="M12.5991,6.5561A5.944,5.944,0,1,0,18.5431,12.5,5.9507,5.9507,0,0,0,12.5991,6.5561Zm0,9.7514A3.8075,3.8075,0,1,1,16.4064,12.5,3.8117,3.8117,0,0,1,12.5991,16.3075Z" transform="translate(-0.4319 -0.4319)"></path><path d="M17.3179,24.5681H7.6816a7.2578,7.2578,0,0,1-7.25-7.25V7.6816a7.2578,7.2578,0,0,1,7.25-7.25h9.6363a7.2582,7.2582,0,0,1,7.25,7.25v9.6368A7.2582,7.2582,0,0,1,17.3179,24.5681ZM7.6816,2.7027A4.9844,4.9844,0,0,0,2.7025,7.6816v9.6368a4.9846,4.9846,0,0,0,4.9791,4.9791h9.6363a4.9848,4.9848,0,0,0,4.9794-4.9791V7.6816a4.9846,4.9846,0,0,0-4.9794-4.9789Z" transform="translate(-0.4319 -0.4319)"></path></svg>